<svg width="179" height="56" viewBox="0 0 179 56" fill="none" xmlns="http://www.w3.org/2000/svg">
<path d="M11.5904 55.4129C11.1284 55.4129 10.6777 55.4073 10.2193 55.3976C9.26991 55.3859 8.3227 55.3077 7.38548 55.1638C6.51157 55.0215 5.66499 54.7568 4.87365 54.3785C4.08957 54.0032 3.37443 53.5113 2.75562 52.9213C2.12785 52.3384 1.60521 51.6622 1.20839 50.9197C0.80721 50.1723 0.529567 49.3712 0.385136 48.5444C0.229163 47.6559 0.144775 46.7574 0.1327 45.8569C0.123088 45.5546 0.110504 44.5481 0.110504 44.5481V11.4373C0.110504 11.4373 0.123907 10.4463 0.132776 10.1551C0.144338 9.25595 0.228235 8.35893 0.383741 7.4718C0.528438 6.64265 0.806297 5.83926 1.2077 5.08946C1.60305 4.34744 2.12279 3.67079 2.74678 3.08573C3.37006 2.49511 4.0875 2.00059 4.87291 1.62019C5.66242 1.24306 6.50741 0.980241 7.37955 0.840544C8.31985 0.695156 9.27035 0.616552 10.2231 0.605392L11.5911 0.587891H167.401L168.786 0.606094C169.73 0.6167 170.672 0.694602 171.603 0.83914C172.484 0.980588 173.338 1.24524 174.137 1.62439C175.71 2.391 176.991 3.60386 177.798 5.09296C178.193 5.83759 178.467 6.63442 178.61 7.45641C178.767 8.35081 178.855 9.25488 178.873 10.1614C178.878 10.5673 178.878 11.0034 178.878 11.4373C178.89 11.9748 178.889 12.4864 178.889 13.0022V42.9999C178.889 43.5207 178.89 44.0288 178.878 44.5411C178.878 45.0072 178.878 45.4342 178.872 45.8736C178.854 46.764 178.767 47.6519 178.612 48.5303C178.471 49.3632 178.195 50.1705 177.794 50.924C177.394 51.6584 176.875 52.3287 176.254 52.9101C175.635 53.5032 174.918 53.9981 174.132 54.3757C173.336 54.757 172.483 55.0227 171.603 55.1638C170.666 55.3085 169.719 55.3866 168.769 55.3976C168.325 55.4073 167.86 55.4129 167.409 55.4129L165.765 55.4158L11.5904 55.4129Z" fill="#FBB03B"/>
<path d="M36.3397 28.432C36.356 27.2356 36.6922 26.0626 37.3168 25.0221C37.9415 23.9815 38.8345 23.1073 39.9126 22.4807C39.2277 21.556 38.3242 20.7949 37.2737 20.2581C36.2233 19.7212 35.055 19.4233 33.8615 19.388C31.3155 19.1354 28.8473 20.8283 27.55 20.8283C26.2275 20.8283 24.23 19.4131 22.079 19.4549C20.6877 19.4974 19.3318 19.8799 18.1433 20.5651C16.9548 21.2504 15.9744 22.2149 15.2975 23.3649C12.3653 28.1643 14.5525 35.2178 17.3612 39.0973C18.7665 40.9969 20.4089 43.1189 22.558 43.0437C24.6609 42.9612 25.4464 41.7759 27.9848 41.7759C30.4997 41.7759 31.2366 43.0437 33.4292 42.9958C35.6858 42.9612 37.1076 41.0877 38.4636 39.17C39.4733 37.8165 40.2502 36.3205 40.7657 34.7374C39.4547 34.2132 38.3359 33.3358 37.5488 32.2145C36.7618 31.0932 36.3413 29.7777 36.3397 28.432V28.432Z" fill="white"/>
<path d="M32.1982 16.8362C33.4286 15.4399 34.0348 13.6451 33.888 11.833C32.0082 12.0197 30.2719 12.869 29.0249 14.2118C28.4152 14.8678 27.9482 15.6309 27.6507 16.4576C27.3532 17.2843 27.2309 18.1584 27.2909 19.0298C28.2311 19.0389 29.1612 18.8463 30.0113 18.4663C30.8613 18.0863 31.6091 17.529 32.1982 16.8362Z" fill="white"/>
<path d="M62.9226 38.2343H55.7462L54.0228 43.0452H50.9831L57.7805 25.2461H60.9386L67.736 43.0452H64.6445L62.9226 38.2343ZM56.4894 36.0143H62.1779L59.3737 28.2066H59.2952L56.4894 36.0143Z" fill="white"/>
<path d="M82.4161 36.5571C82.4161 40.5897 80.1331 43.1806 76.6877 43.1806C75.8149 43.2238 74.947 43.0337 74.1831 42.6322C73.4193 42.2307 72.7906 41.6339 72.3688 40.9102H72.3036V47.3378H69.4861V30.0679H72.2134V32.2263H72.2652C72.7063 31.5061 73.3457 30.9124 74.1153 30.5084C74.885 30.1044 75.756 29.9053 76.6359 29.9321C80.1197 29.9321 82.4161 32.5356 82.4161 36.5571ZM79.5201 36.5571C79.5201 33.9298 78.0839 32.2025 75.8926 32.2025C73.7398 32.2025 72.2918 33.9661 72.2918 36.5571C72.2918 39.1718 73.7398 40.9229 75.8926 40.9229C78.0839 40.9229 79.5201 39.2082 79.5201 36.5571Z" fill="white"/>
<path d="M97.5241 36.557C97.5241 40.5897 95.241 43.1806 91.7957 43.1806C90.9229 43.2238 90.0549 43.0337 89.2911 42.6322C88.5273 42.2306 87.8985 41.6339 87.4768 40.9102H87.4116V47.3378H84.594V30.0678H87.3213V32.2262H87.3731C87.8142 31.506 88.4536 30.9124 89.2232 30.5084C89.9929 30.1044 90.864 29.9053 91.7438 29.9321C95.2277 29.9321 97.5241 32.5356 97.5241 36.557ZM94.6281 36.557C94.6281 33.9297 93.1919 32.2025 91.0006 32.2025C88.8478 32.2025 87.3998 33.9661 87.3998 36.557C87.3998 39.1718 88.8478 40.9228 91.0006 40.9228C93.1919 40.9228 94.6281 39.2082 94.6281 36.557H94.6281Z" fill="white"/>
<path d="M107.509 38.0858C107.718 39.8509 109.532 41.0098 112.01 41.0098C114.385 41.0098 116.094 39.8509 116.094 38.2594C116.094 36.8778 115.063 36.0506 112.623 35.4837L110.183 34.928C106.726 34.1385 105.121 32.61 105.121 30.1297C105.121 27.0586 107.952 24.9492 111.972 24.9492C115.95 24.9492 118.677 27.0586 118.769 30.1297H115.925C115.755 28.3534 114.202 27.2812 111.932 27.2812C109.662 27.2812 108.109 28.366 108.109 29.9449C108.109 31.2033 109.101 31.9437 111.528 32.5106L113.602 32.9921C117.465 33.8557 119.07 35.3227 119.07 37.9262C119.07 41.2561 116.264 43.3418 111.801 43.3418C107.626 43.3418 104.807 41.3051 104.625 38.0857L107.509 38.0858Z" fill="white"/>
<path d="M125.151 26.9971V30.0681H127.761V32.1775H125.151V39.3316C125.151 40.443 125.673 40.9609 126.821 40.9609C127.131 40.9558 127.44 40.9352 127.747 40.8992V42.9961C127.232 43.0872 126.707 43.1285 126.182 43.1192C123.403 43.1192 122.32 42.1324 122.32 39.6157V32.1775H120.324V30.0681H122.32V26.9971H125.151Z" fill="white"/>
<path d="M129.273 36.557C129.273 32.4739 131.816 29.9082 135.783 29.9082C139.763 29.9082 142.294 32.4739 142.294 36.557C142.294 40.6512 139.776 43.2057 135.783 43.2057C131.791 43.2057 129.273 40.6512 129.273 36.557ZM139.424 36.557C139.424 33.7561 138.066 32.103 135.783 32.103C133.5 32.103 132.143 33.7687 132.143 36.557C132.143 39.369 133.5 41.0095 135.783 41.0095C138.066 41.0095 139.423 39.369 139.423 36.557H139.424Z" fill="white"/>
<path d="M144.617 30.0677H147.305V32.2765H147.37C147.552 31.5867 147.979 30.977 148.58 30.5501C149.182 30.1231 149.92 29.9048 150.672 29.9319C150.996 29.9309 151.32 29.9642 151.637 30.0313V32.5229C151.227 32.4044 150.799 32.3501 150.371 32.3619C149.962 32.3462 149.554 32.4144 149.175 32.5619C148.796 32.7094 148.455 32.9326 148.177 33.2162C147.898 33.4999 147.687 33.8372 147.559 34.2051C147.431 34.573 147.389 34.9627 147.435 35.3475V43.0447H144.617L144.617 30.0677Z" fill="white"/>
<path d="M164.628 39.2333C164.249 41.589 161.822 43.2057 158.717 43.2057C154.724 43.2057 152.245 40.6764 152.245 36.6186C152.245 32.5481 154.737 29.9082 158.599 29.9082C162.396 29.9082 164.785 32.3745 164.785 36.3092V37.2218H155.09V37.3828C155.045 37.8604 155.108 38.3415 155.275 38.7942C155.442 39.2469 155.709 39.6608 156.059 40.0085C156.408 40.3562 156.831 40.6296 157.301 40.8106C157.77 40.9916 158.275 41.0762 158.782 41.0585C159.448 41.1175 160.116 40.9717 160.687 40.6428C161.259 40.314 161.702 39.8196 161.952 39.2333L164.628 39.2333ZM155.103 35.3602H161.966C161.991 34.9308 161.922 34.501 161.763 34.098C161.605 33.6949 161.359 33.3272 161.043 33.0179C160.727 32.7087 160.347 32.4645 159.926 32.3008C159.505 32.1371 159.053 32.0574 158.599 32.0666C158.14 32.064 157.685 32.1474 157.26 32.3118C156.836 32.4763 156.45 32.7186 156.125 33.0248C155.8 33.331 155.542 33.6951 155.367 34.0959C155.191 34.4967 155.102 34.9264 155.103 35.3602V35.3602Z" fill="white"/>
<path d="M56.1363 11.8486C56.727 11.8085 57.3197 11.8929 57.8718 12.0956C58.4238 12.2983 58.9214 12.6143 59.3286 13.0209C59.7358 13.4274 60.0425 13.9143 60.2266 14.4464C60.4106 14.9786 60.4675 15.5427 60.393 16.0982C60.393 18.8305 58.831 20.401 56.1363 20.401H52.8686V11.8486H56.1363ZM54.2737 19.1915H55.9793C56.4014 19.2154 56.8238 19.15 57.2158 19C57.6078 18.8501 57.9595 18.6194 58.2453 18.3247C58.531 18.0301 58.7437 17.6789 58.8678 17.2968C58.992 16.9146 59.0244 16.5111 58.9627 16.1156C59.0199 15.7217 58.9842 15.3207 58.8582 14.9413C58.7322 14.562 58.519 14.2137 58.2338 13.9214C57.9487 13.6291 57.5987 13.4 57.2089 13.2506C56.8192 13.1012 56.3993 13.0351 55.9793 13.0572H54.2737V19.1915Z" fill="white"/>
<path d="M61.9802 17.1711C61.9373 16.7469 61.9886 16.319 62.1309 15.9147C62.2731 15.5104 62.5032 15.1387 62.8064 14.8233C63.1095 14.508 63.479 14.2561 63.8912 14.0837C64.3033 13.9113 64.7491 13.8223 65.1997 13.8223C65.6504 13.8223 66.0962 13.9113 66.5083 14.0837C66.9205 14.2561 67.29 14.508 67.5931 14.8233C67.8963 15.1387 68.1264 15.5104 68.2686 15.9147C68.4109 16.319 68.4622 16.7469 68.4193 17.1711C68.463 17.5957 68.4123 18.0242 68.2704 18.4292C68.1285 18.8341 67.8986 19.2065 67.5954 19.5224C67.2922 19.8384 66.9224 20.0908 66.5098 20.2636C66.0972 20.4364 65.651 20.5256 65.1997 20.5256C64.7485 20.5256 64.3023 20.4364 63.8897 20.2636C63.4771 20.0908 63.1073 19.8384 62.8041 19.5224C62.5009 19.2065 62.271 18.8341 62.1291 18.4292C61.9872 18.0242 61.9365 17.5957 61.9802 17.1711V17.1711ZM67.0335 17.1711C67.0335 15.772 66.3687 14.9539 65.202 14.9539C64.0308 14.9539 63.372 15.772 63.372 17.1711C63.372 18.5813 64.0309 19.3932 65.202 19.3932C66.3687 19.3932 67.0335 18.5757 67.0335 17.1711H67.0335Z" fill="white"/>
<path d="M76.9786 20.4005H75.5809L74.1699 15.647H74.0633L72.6583 20.4005H71.2739L69.3921 13.9463H70.7587L71.9816 18.8712H72.0823L73.4859 13.9463H74.7785L76.1821 18.8712H76.2887L77.5057 13.9463H78.8531L76.9786 20.4005Z" fill="white"/>
<path d="M80.4358 13.9464H81.7328V14.9717H81.8335C82.0043 14.6034 82.2923 14.2947 82.6575 14.0886C83.0227 13.8825 83.4468 13.7892 83.8708 13.8218C84.203 13.7982 84.5365 13.8455 84.8467 13.9603C85.1569 14.0751 85.4358 14.2544 85.6627 14.485C85.8897 14.7155 86.0588 14.9914 86.1577 15.2921C86.2565 15.5929 86.2826 15.9108 86.2338 16.2223V20.4005H84.8865V16.5422C84.8865 15.505 84.4097 14.9892 83.4133 14.9892C83.1877 14.9792 82.9626 15.0155 82.7533 15.0956C82.544 15.1756 82.3554 15.2974 82.2006 15.4528C82.0458 15.6082 81.9283 15.7933 81.8562 15.9956C81.7842 16.1979 81.7592 16.4125 81.7831 16.6248V20.4006H80.4358L80.4358 13.9464Z" fill="white"/>
<path d="M88.3807 11.4268H89.728V20.4005H88.3807V11.4268Z" fill="white"/>
<path d="M91.6009 17.1702C91.5581 16.746 91.6094 16.3181 91.7517 15.9138C91.894 15.5094 92.1242 15.1377 92.4273 14.8224C92.7305 14.5071 93.1 14.2551 93.5122 14.0827C93.9244 13.9103 94.3702 13.8213 94.8209 13.8213C95.2716 13.8213 95.7174 13.9103 96.1295 14.0827C96.5417 14.2551 96.9113 14.5071 97.2144 14.8224C97.5176 15.1377 97.7477 15.5094 97.89 15.9138C98.0323 16.3181 98.0837 16.746 98.0408 17.1702C98.0845 17.5948 98.0337 18.0234 97.8918 18.4283C97.7498 18.8333 97.5198 19.2057 97.2166 19.5216C96.9134 19.8375 96.5436 20.0899 96.131 20.2627C95.7184 20.4355 95.2721 20.5247 94.8209 20.5247C94.3696 20.5247 93.9234 20.4355 93.5108 20.2627C93.0982 20.0899 92.7284 19.8375 92.4251 19.5216C92.1219 19.2057 91.8919 18.8333 91.75 18.4283C91.608 18.0234 91.5573 17.5948 91.6009 17.1702V17.1702ZM96.6542 17.1702C96.6542 15.7712 95.9894 14.953 94.8227 14.953C93.6516 14.953 92.9928 15.7712 92.9928 17.1702C92.9928 18.5805 93.6516 19.3923 94.8227 19.3923C95.9894 19.3923 96.6542 18.5749 96.6542 17.1702H96.6542Z" fill="white"/>
<path d="M99.4592 18.5748C99.4592 17.413 100.374 16.7432 101.998 16.6481L103.848 16.5473V15.9902C103.848 15.3085 103.371 14.9236 102.45 14.9236C101.698 14.9236 101.177 15.1846 101.027 15.6409H99.7228C99.8605 14.5324 100.964 13.8213 102.512 13.8213C104.224 13.8213 105.189 14.6268 105.189 15.9902V20.4001H103.892V19.493H103.786C103.569 19.8184 103.265 20.0836 102.905 20.2617C102.545 20.4397 102.141 20.5242 101.735 20.5064C101.448 20.5346 101.159 20.5057 100.885 20.4215C100.611 20.3374 100.358 20.1999 100.144 20.0179C99.9293 19.8359 99.7577 19.6135 99.6398 19.3649C99.5219 19.1164 99.4604 18.8472 99.4592 18.5748V18.5748ZM103.848 18.0233V17.4837L102.181 17.5845C101.24 17.644 100.814 17.9463 100.814 18.5153C100.814 19.0962 101.347 19.4342 102.08 19.4342C102.295 19.4548 102.512 19.4343 102.718 19.3739C102.924 19.3136 103.115 19.2147 103.28 19.0831C103.445 18.9514 103.58 18.7898 103.678 18.6077C103.775 18.4256 103.833 18.2269 103.848 18.0233V18.0233Z" fill="white"/>
<path d="M106.96 17.1706C106.96 15.1312 108.069 13.8392 109.794 13.8392C110.22 13.8206 110.644 13.9173 111.015 14.1178C111.385 14.3183 111.688 14.6144 111.887 14.9716H111.988V11.4268H113.335V20.4005H112.044V19.3808H111.938C111.723 19.7355 111.41 20.028 111.032 20.2264C110.654 20.4249 110.226 20.5219 109.794 20.5069C108.057 20.5069 106.96 19.2149 106.96 17.1706ZM108.352 17.1706C108.352 18.5396 109.034 19.3633 110.176 19.3633C111.311 19.3633 112.013 18.5277 112.013 17.1762C112.013 15.8311 111.304 14.9835 110.176 14.9835C109.042 14.9835 108.352 15.8129 108.352 17.1706H108.352Z" fill="white"/>
<path d="M118.91 17.1711C118.867 16.7469 118.918 16.319 119.06 15.9147C119.203 15.5104 119.433 15.1387 119.736 14.8233C120.039 14.508 120.409 14.2561 120.821 14.0837C121.233 13.9113 121.679 13.8223 122.129 13.8223C122.58 13.8223 123.026 13.9113 123.438 14.0837C123.85 14.2561 124.22 14.508 124.523 14.8233C124.826 15.1387 125.056 15.5104 125.198 15.9147C125.341 16.319 125.392 16.7469 125.349 17.1711C125.393 17.5957 125.342 18.0242 125.2 18.4292C125.058 18.8341 124.828 19.2065 124.525 19.5224C124.222 19.8384 123.852 20.0908 123.439 20.2636C123.027 20.4364 122.581 20.5256 122.129 20.5256C121.678 20.5256 121.232 20.4364 120.819 20.2636C120.407 20.0908 120.037 19.8384 119.734 19.5224C119.431 19.2065 119.201 18.8341 119.059 18.4292C118.917 18.0242 118.866 17.5957 118.91 17.1711V17.1711ZM123.963 17.1711C123.963 15.772 123.298 14.9539 122.132 14.9539C120.96 14.9539 120.302 15.772 120.302 17.1711C120.302 18.5813 120.96 19.3932 122.132 19.3932C123.298 19.3932 123.963 18.5757 123.963 17.1711Z" fill="white"/>
<path d="M127.157 13.9464H128.454V14.9717H128.554C128.725 14.6034 129.013 14.2947 129.378 14.0886C129.744 13.8825 130.168 13.7892 130.592 13.8218C130.924 13.7982 131.257 13.8455 131.568 13.9603C131.878 14.0751 132.157 14.2544 132.384 14.485C132.611 14.7155 132.78 14.9914 132.879 15.2921C132.977 15.5929 133.003 15.9108 132.955 16.2223V20.4005H131.607V16.5422C131.607 15.505 131.131 14.9892 130.134 14.9892C129.909 14.9792 129.684 15.0155 129.474 15.0956C129.265 15.1756 129.076 15.2974 128.922 15.4528C128.767 15.6082 128.649 15.7933 128.577 15.9956C128.505 16.1979 128.48 16.4125 128.504 16.6248V20.4006H127.157V13.9464Z" fill="white"/>
<path d="M140.568 12.3398V13.9761H142.047V15.049H140.568V18.3678C140.568 19.0439 140.863 19.3399 141.533 19.3399C141.705 19.3394 141.877 19.3296 142.047 19.3105V20.3715C141.805 20.4125 141.56 20.4342 141.314 20.4366C139.816 20.4366 139.219 19.9383 139.219 18.694V15.049H138.135V13.9761H139.219V12.3398H140.568Z" fill="white"/>
<path d="M143.887 11.4268H145.223V14.9835H145.33C145.509 14.6118 145.805 14.3014 146.177 14.0945C146.55 13.8876 146.981 13.7943 147.411 13.8273C147.742 13.8103 148.072 13.8625 148.379 13.9801C148.685 14.0977 148.961 14.2778 149.185 14.5076C149.41 14.7374 149.578 15.0113 149.678 15.3096C149.778 15.6079 149.806 15.9234 149.762 16.2335V20.4005H148.414V16.5477C148.414 15.5168 147.906 14.9947 146.954 14.9947C146.722 14.9767 146.489 15.0068 146.271 15.0829C146.053 15.1589 145.856 15.2791 145.692 15.4349C145.528 15.5908 145.402 15.7786 145.323 15.9852C145.245 16.1918 145.214 16.4122 145.235 16.631V20.4005H143.888L143.887 11.4268Z" fill="white"/>
<path d="M157.618 18.6575C157.435 19.2474 157.039 19.7576 156.498 20.099C155.957 20.4403 155.307 20.591 154.66 20.5247C154.21 20.536 153.763 20.4545 153.35 20.2861C152.937 20.1176 152.568 19.8662 152.268 19.5492C151.968 19.2322 151.744 18.8573 151.613 18.4505C151.481 18.0437 151.445 17.6147 151.507 17.1934C151.447 16.7707 151.484 16.3408 151.615 15.9328C151.746 15.5247 151.968 15.1481 152.267 14.8284C152.565 14.5086 152.933 14.2532 153.345 14.0795C153.757 13.9058 154.203 13.8178 154.654 13.8214C156.554 13.8214 157.7 15.0483 157.7 17.0751V17.5195H152.879V17.5909C152.858 17.8278 152.889 18.0662 152.972 18.2908C153.054 18.5155 153.184 18.7215 153.356 18.8956C153.527 19.0697 153.735 19.208 153.966 19.3018C154.197 19.3955 154.446 19.4425 154.697 19.4399C155.02 19.4765 155.346 19.4216 155.635 19.2823C155.924 19.143 156.163 18.9255 156.321 18.6574L157.618 18.6575ZM152.879 16.5775H156.327C156.344 16.3609 156.313 16.1433 156.236 15.9387C156.159 15.7342 156.037 15.5471 155.879 15.3897C155.72 15.2322 155.529 15.1078 155.317 15.0244C155.105 14.941 154.877 14.9005 154.647 14.9055C154.414 14.9027 154.183 14.9441 153.967 15.0271C153.751 15.1102 153.555 15.2333 153.39 15.3891C153.225 15.5449 153.095 15.7303 153.007 15.9344C152.92 16.1385 152.876 16.3572 152.879 16.5775H152.879Z" fill="white"/>
</svg>
