<svg width="182" height="56" viewBox="0 0 182 56" fill="none" xmlns="http://www.w3.org/2000/svg">
<path d="M174.871 55.3337H7.12899C3.43867 55.3337 0.419312 52.2587 0.419312 48.5003V7.50032C0.419312 3.74199 3.43867 0.666992 7.12899 0.666992H174.871C178.561 0.666992 181.581 3.74199 181.581 7.50032V48.5003C181.581 52.2587 178.561 55.3337 174.871 55.3337Z" fill="#FBB03B"/>
<path d="M64.054 14.6613C64.054 15.8093 63.7185 16.725 63.0475 17.3947C62.2961 18.201 61.303 18.611 60.0953 18.611C58.9278 18.611 57.9482 18.201 57.1296 17.381C56.311 16.561 55.9084 15.536 55.9084 14.3333C55.9084 13.117 56.311 12.1057 57.1296 11.2857C57.9482 10.4657 58.9278 10.0557 60.0953 10.0557C60.6723 10.0557 61.2225 10.165 61.7459 10.3973C62.2692 10.6297 62.6852 10.9303 63.0073 11.313L62.2961 12.0373C61.7593 11.395 61.0346 11.067 60.0953 11.067C59.2499 11.067 58.5118 11.3677 57.8945 11.9827C57.2772 12.584 56.9686 13.3767 56.9686 14.347C56.9686 15.3173 57.2772 16.11 57.8945 16.7113C58.5118 17.3127 59.2499 17.627 60.0953 17.627C60.9944 17.627 61.7459 17.3263 62.3497 16.7113C62.7389 16.315 62.967 15.7547 63.0207 15.044H60.0953V14.06H64.0003C64.0272 14.265 64.054 14.47 64.054 14.6613Z" fill="white" stroke="white" stroke-width="0.2" stroke-miterlimit="10"/>
<path d="M70.2403 11.2447H66.5768V13.8414H69.878V14.8254H66.5768V17.4221H70.2403V18.4334H65.5435V10.2334H70.2403V11.2447V11.2447Z" fill="white" stroke="white" stroke-width="0.2" stroke-miterlimit="10"/>
<path d="M74.6016 18.4334H73.5683V11.2447H71.3138V10.2334H76.8426V11.2447H74.5882V18.4334H74.6016Z" fill="white" stroke="white" stroke-width="0.2" stroke-miterlimit="10"/>
<path d="M80.855 18.4334V10.2334H81.8883V18.4334H80.855Z" fill="white" stroke="white" stroke-width="0.2" stroke-miterlimit="10"/>
<path d="M86.4777 18.4334H85.4445V11.2447H83.19V10.2334H88.7188V11.2447H86.4643V18.4334H86.4777Z" fill="white" stroke="white" stroke-width="0.2" stroke-miterlimit="10"/>
<path d="M99.1993 17.3673C98.4076 18.201 97.428 18.611 96.2471 18.611C95.0662 18.611 94.0865 18.201 93.2948 17.3673C92.503 16.5337 92.1139 15.5223 92.1139 14.3333C92.1139 13.1443 92.503 12.1193 93.2948 11.2993C94.0865 10.4657 95.0662 10.0557 96.2471 10.0557C97.4145 10.0557 98.3942 10.4657 99.1993 11.2993C99.9911 12.133 100.394 13.1443 100.394 14.3333C100.38 15.536 99.9911 16.5473 99.1993 17.3673ZM94.0597 16.684C94.6501 17.299 95.3882 17.5997 96.2471 17.5997C97.1059 17.5997 97.844 17.299 98.4344 16.684C99.0249 16.069 99.3335 15.29 99.3335 14.3333C99.3335 13.3767 99.0383 12.5977 98.4344 11.9827C97.844 11.3677 97.1059 11.067 96.2471 11.067C95.3882 11.067 94.6501 11.3677 94.0597 11.9827C93.4692 12.5977 93.1606 13.3767 93.1606 14.3333C93.1606 15.29 93.4692 16.069 94.0597 16.684Z" fill="white" stroke="white" stroke-width="0.2" stroke-miterlimit="10"/>
<path d="M101.843 18.4334V10.2334H103.104L107.023 16.6157H107.063L107.023 15.0304V10.2334H108.056V18.4334H106.983L102.89 11.7504H102.849L102.89 13.3357V18.4334H101.843Z" fill="white" stroke="white" stroke-width="0.2" stroke-miterlimit="10"/>
<path d="M91.8589 30.3921C88.7053 30.3921 86.1288 32.8384 86.1288 36.2004C86.1288 39.5488 88.7053 42.0088 91.8589 42.0088C95.0124 42.0088 97.589 39.5488 97.589 36.2004C97.589 32.8384 95.0124 30.3921 91.8589 30.3921ZM91.8589 39.7264C90.1278 39.7264 88.6382 38.2778 88.6382 36.2004C88.6382 34.1094 90.1278 32.6744 91.8589 32.6744C93.59 32.6744 95.0795 34.1094 95.0795 36.2004C95.0795 38.2778 93.5766 39.7264 91.8589 39.7264ZM79.352 30.3921C76.1985 30.3921 73.622 32.8384 73.622 36.2004C73.622 39.5488 76.1985 42.0088 79.352 42.0088C82.5056 42.0088 85.0821 39.5488 85.0821 36.2004C85.0821 32.8384 82.5056 30.3921 79.352 30.3921ZM79.352 39.7264C77.6209 39.7264 76.1314 38.2778 76.1314 36.2004C76.1314 34.1094 77.6209 32.6744 79.352 32.6744C81.0831 32.6744 82.5727 34.1094 82.5727 36.2004C82.5727 38.2778 81.0831 39.7264 79.352 39.7264ZM64.4834 32.1824V34.6424H70.2806C70.1061 36.0228 69.6499 37.0478 68.9655 37.7448C68.12 38.6058 66.8049 39.5488 64.4968 39.5488C60.9273 39.5488 58.136 36.6241 58.136 32.9888C58.136 29.3534 60.9273 26.4288 64.4968 26.4288C66.4158 26.4288 67.8248 27.1941 68.8581 28.1918L70.5624 26.4561C69.1131 25.0484 67.1941 23.9688 64.4834 23.9688C59.5988 23.9688 55.4924 28.0141 55.4924 33.0024C55.4924 37.9771 59.5988 42.0361 64.4834 42.0361C67.127 42.0361 69.1131 41.1614 70.6697 39.5077C72.2666 37.8814 72.7631 35.5854 72.7631 33.7404C72.7631 33.1664 72.7229 32.6334 72.6289 32.1961H64.4834V32.1824ZM125.287 34.0957C124.817 32.7974 123.368 30.3921 120.402 30.3921C117.463 30.3921 115.021 32.7428 115.021 36.2004C115.021 39.4531 117.436 42.0088 120.684 42.0088C123.3 42.0088 124.817 40.3824 125.434 39.4394L123.488 38.1138C122.844 39.0841 121.959 39.7264 120.684 39.7264C119.409 39.7264 118.496 39.1251 117.919 37.9634L125.555 34.7517L125.287 34.0957ZM117.503 36.0364C117.436 33.7951 119.208 32.6471 120.482 32.6471C121.475 32.6471 122.321 33.1528 122.603 33.8771L117.503 36.0364ZM111.304 41.6671H113.813V24.5838H111.304V41.6671ZM107.197 31.6904H107.103C106.54 31.0071 105.466 30.3921 104.097 30.3921C101.239 30.3921 98.6222 32.9478 98.6222 36.2278C98.6222 39.4804 101.239 42.0224 104.097 42.0224C105.453 42.0224 106.54 41.4074 107.103 40.6968H107.184V41.5304C107.184 43.7581 106.016 44.9471 104.138 44.9471C102.608 44.9471 101.655 43.8264 101.266 42.8834L99.0785 43.8128C99.7092 45.3571 101.373 47.2431 104.138 47.2431C107.076 47.2431 109.559 45.4801 109.559 41.1888V30.7474H107.184V31.6904H107.197ZM104.312 39.7264C102.581 39.7264 101.132 38.2504 101.132 36.2278C101.132 34.1778 102.581 32.6881 104.312 32.6881C106.016 32.6881 107.358 34.1914 107.358 36.2278C107.372 38.2504 106.03 39.7264 104.312 39.7264ZM137.042 24.5838H131.043V41.6671H133.553V35.1891H137.055C139.833 35.1891 142.557 33.1391 142.557 29.8864C142.557 26.6337 139.806 24.5838 137.042 24.5838ZM137.096 32.8111H133.539V26.9481H137.096C138.974 26.9481 140.034 28.5334 140.034 29.8728C140.034 31.2121 138.974 32.8111 137.096 32.8111ZM152.581 30.3648C150.77 30.3648 148.891 31.1848 148.113 32.9751L150.34 33.9181C150.81 32.9751 151.696 32.6608 152.622 32.6608C153.91 32.6608 155.238 33.4534 155.252 34.8611V35.0388C154.796 34.7791 153.829 34.3827 152.635 34.3827C150.233 34.3827 147.804 35.7221 147.804 38.2231C147.804 40.5054 149.763 41.9814 151.964 41.9814C153.642 41.9814 154.581 41.2161 155.158 40.3141H155.239V41.6398H157.654V35.0934C157.667 32.0594 155.44 30.3648 152.581 30.3648ZM152.273 39.7264C151.454 39.7264 150.314 39.3028 150.314 38.2778C150.314 36.9658 151.736 36.4601 152.971 36.4601C154.071 36.4601 154.594 36.7061 155.252 37.0341C155.064 38.6058 153.722 39.7264 152.273 39.7264ZM166.471 30.7338L163.599 38.1411H163.518L160.539 30.7338H157.842L162.31 41.0931L159.761 46.8468H162.378L169.262 30.7338H166.471ZM143.926 41.6671H146.435V24.5838H143.926V41.6671Z" fill="white"/>
<path d="M14.4292 10.9716C14.04 11.3953 13.8119 12.0513 13.8119 12.885V43.1156C13.8119 43.963 14.04 44.619 14.4292 45.029L14.5231 45.1246L31.1497 28.2053V28.0003V27.7953L14.5231 10.876L14.4292 10.9716Z" fill="white"/>
<path d="M37.2791 33.8491L31.7369 28.2047V27.9997V27.7947L37.2791 22.1504L37.3999 22.2187L43.962 26.0181C45.8407 27.0977 45.8407 28.8744 43.962 29.9677L37.3999 33.7671L37.2791 33.8491Z" fill="white"/>
<path d="M36.8127 35.1335L31.1497 29.3662L14.4292 46.3949C15.0465 47.0645 16.0664 47.1465 17.2204 46.4769L36.8127 35.1335Z" fill="white"/>
<path d="M36.8127 20.866L17.207 9.5227C16.0529 8.85303 15.0331 8.93503 14.4158 9.6047L31.1497 26.6334L36.8127 20.866Z" fill="white"/>
</svg>
