<svg width="144" height="39" viewBox="0 0 144 39" fill="none" xmlns="http://www.w3.org/2000/svg">
<path d="M21.6561 15.3292L21.3888 13.975C21.1749 13.1625 21.1214 12.1875 21.1214 11.1042C21.1214 10.4542 21.1749 9.75004 21.2284 8.88337C21.3888 7.47504 22.0305 6.28337 23.1534 5.41671C25.827 3.46671 29.9443 4.11671 31.1742 4.38754C33.6339 4.92921 35.3984 6.66254 35.9332 9.15421C36.1471 10.1292 36.2005 11.1584 36.0401 12.1875L35.8797 13.2709L34.8103 13.5417C31.0672 14.5167 27.0568 15.0584 22.9929 15.1667L21.6561 15.3292ZM28.0728 7.42087C26.7895 7.42087 25.72 7.69171 25.0784 8.12504C24.7041 8.39587 24.4902 8.72087 24.4902 9.20837C24.4367 9.96671 24.3832 10.5625 24.3832 11.1042C24.3832 11.375 24.3832 11.5917 24.3832 11.8084C27.3242 11.6459 30.1582 11.2125 32.8853 10.6167C32.8853 10.3459 32.8318 10.075 32.7783 9.85838C32.511 8.61254 31.7624 7.85421 30.5325 7.58337C29.6769 7.52921 28.8749 7.42087 28.0728 7.42087Z" fill="#FBB03B"/>
<path d="M17.4853 15.5456L16.7367 15.4915C12.9402 15.329 9.46454 14.5165 5.66803 13.5956L5.50762 13.5415L4.43818 13.054L4.22429 12.8915C3.31527 12.0248 2.6736 10.9415 2.45971 9.69562C2.08541 7.74562 2.62013 5.74145 3.95693 4.33312L6.14928 1.94979C8.3951 -0.54188 12.1916 -0.650213 14.5978 1.62479L18.6082 5.41645C20.3728 7.09562 21.0145 9.74979 20.1055 12.079C19.8381 12.7831 19.4103 13.4331 18.9291 14.029L17.4853 15.5456ZM6.63053 10.454C9.94579 11.2665 12.9937 11.9706 16.1485 12.1873L16.5763 11.754C16.7902 11.4831 17.0041 11.2123 17.111 10.8873C17.5388 9.85812 17.218 8.61229 16.4159 7.85395L12.4055 4.06229C11.2826 3.03312 9.57149 3.08729 8.50205 4.22479L6.3097 6.60812C5.7215 7.25812 5.45414 8.17895 5.61456 9.09979C5.7215 9.58729 5.93539 10.0206 6.25622 10.3998L6.63053 10.454Z" fill="#F7931E"/>
<path d="M38.5533 11.8626C38.5533 11.3751 38.4998 10.9417 38.4998 10.5084C38.4463 9.96672 37.9116 9.64172 37.4304 9.80422C37.27 9.85839 37.1095 9.91256 36.9491 9.96672C36.4679 10.1292 36.1471 10.6167 36.1471 11.1584C36.1471 11.4834 36.2005 11.8084 36.2005 12.1334C36.2005 12.2959 36.2005 12.4584 36.2005 12.6751C35.9332 21.7209 28.6075 28.9792 19.5707 28.9792C10.3736 28.9792 2.94096 21.4501 2.94096 12.1876V12.1334C2.94096 11.3209 2.99443 10.5626 3.10138 9.75006C2.78055 9.64172 2.45971 9.53339 2.13888 9.37089C1.44375 9.10006 0.748612 9.58756 0.641668 10.2917C0.588196 10.6167 0.588196 10.8876 0.588196 11.2126C0.588196 11.4834 0.588196 11.8084 0.588196 12.0792C0.588196 22.6959 9.09024 31.3084 19.5707 31.3084C30.0512 31.3084 38.5533 22.6959 38.5533 12.0792C38.5533 12.0792 38.5533 11.9709 38.5533 11.8626Z" fill="white"/>
<path d="M19.5173 32.0126C8.7694 32.0126 0 23.1293 0 12.1876C0 11.8626 0 11.5376 0 11.2668C0 10.9418 0.053472 10.6709 0.053472 10.3459C0.106944 9.80426 0.374304 9.37093 0.802079 9.1001C1.22986 8.82926 1.76457 8.7751 2.24582 8.9376C2.56665 9.04593 2.88749 9.15426 3.20832 9.31676L3.63609 9.47926L3.58262 9.9126C3.47568 10.6709 3.42221 11.4293 3.42221 12.1876C3.42221 21.1793 10.6409 28.4918 19.5173 28.4918C28.2867 28.4918 35.345 21.5584 35.6123 12.7293C35.6123 12.5668 35.6123 12.4043 35.6123 12.2418C35.6123 11.9168 35.6123 11.5918 35.5589 11.2668C35.5054 10.4543 35.9866 9.7501 36.7352 9.53343C36.8957 9.47926 37.0561 9.4251 37.2165 9.37093C37.5908 9.20843 38.0186 9.2626 38.3929 9.53343C38.7137 9.7501 38.9811 10.1293 38.9811 10.5626C39.0345 11.0501 39.0345 11.4834 39.0345 11.9709C39.0345 12.0793 39.0345 12.1876 39.0345 12.2959C39.088 23.1293 30.3186 32.0126 19.5173 32.0126ZM1.7111 9.96676C1.60416 9.96676 1.49722 10.0209 1.44374 10.0751C1.28333 10.1834 1.22986 10.3459 1.17638 10.5084C1.17638 10.7793 1.12291 11.1043 1.12291 11.3751C1.12291 11.6459 1.12291 11.9168 1.12291 12.2418C1.06944 22.5334 9.35759 30.8751 19.5173 30.8751C29.6769 30.8751 37.9651 22.4793 37.9651 12.1876C37.9651 12.0793 37.9651 11.9709 37.9651 11.8626C37.9651 11.4293 37.9116 10.9959 37.9116 10.5084C37.9116 10.4001 37.8582 10.3459 37.8047 10.3459C37.7512 10.3459 37.6977 10.2918 37.5908 10.3459C37.4304 10.4001 37.27 10.4543 37.1095 10.5084C36.8422 10.6168 36.6818 10.8876 36.6818 11.1584C36.6818 11.4834 36.7352 11.8626 36.7352 12.1876C36.7352 12.3501 36.7352 12.5668 36.7352 12.7293C36.4144 22.2084 28.8749 29.5751 19.5173 29.5751C10.0527 29.5751 2.35277 21.7751 2.35277 12.2418C2.35277 11.5376 2.40624 10.8876 2.45971 10.1834C2.24582 10.1293 2.08541 10.0209 1.87152 9.96676C1.87152 9.96676 1.76457 9.96676 1.7111 9.96676Z" fill="white"/>
<path d="M29.1422 35.696C24.0089 39.1085 17.3249 39.1085 12.2451 35.696C11.4965 35.2086 11.2826 34.2877 11.7104 33.7461C11.7104 33.6919 11.7638 33.6919 11.7638 33.6377C12.1916 33.0961 13.0472 33.0961 13.6354 33.5294C17.9131 36.4002 23.4742 36.4002 27.6985 33.5294C28.3401 33.0961 29.1422 33.1502 29.57 33.6377C29.57 33.6919 29.6235 33.6919 29.6235 33.7461C30.1047 34.2336 29.8908 35.1544 29.1422 35.696Z" fill="white"/>
<path d="M20.6937 39.0001C17.5923 39.0001 14.5444 38.0793 11.8173 36.2918C11.2291 35.9126 10.8548 35.3168 10.7479 34.6668C10.6944 34.1251 10.8013 33.6376 11.1222 33.2584L11.1756 33.1501C11.8173 32.3918 13.0472 32.2293 14.0097 32.8793C18.0201 35.5876 23.2603 35.5876 27.2707 32.8793C28.2332 32.2293 29.4631 32.3376 30.1047 33.1501L30.2117 33.2584C30.5325 33.6376 30.6394 34.1251 30.586 34.6126C30.479 35.2626 30.1047 35.8584 29.5165 36.2376C26.8429 38.0793 23.7416 39.0001 20.6937 39.0001ZM12.7263 33.9626C12.5659 33.9626 12.4055 34.0168 12.2986 34.1251L12.2451 34.1793C12.1916 34.2876 12.1916 34.3959 12.1916 34.4501C12.1916 34.6126 12.352 34.8834 12.6194 35.1001C17.5388 38.4043 23.8485 38.4043 28.7145 35.1001C28.9818 34.8834 29.1422 34.6668 29.1422 34.4501C29.1422 34.3959 29.1422 34.2876 29.0888 34.2334V34.1251C28.8749 33.9084 28.5006 33.9084 28.1263 34.1251C23.6346 37.1584 17.7527 37.1584 13.2611 34.1251C13.1006 34.0168 12.8867 33.9626 12.7263 33.9626Z" fill="white"/>
<path d="M38.5533 10.9414V11.8623C37.8047 12.1873 37.0026 12.4581 36.2005 12.6748C35.345 12.9456 34.4894 13.2164 33.5804 13.4331C29.9978 14.3539 26.1478 14.8956 22.1374 15.0039C21.5492 15.0039 20.9075 15.0581 20.3193 15.0581C19.5173 15.0581 18.7687 15.0581 18.02 15.0039C14.2235 14.8414 10.6409 14.2998 7.27218 13.4873C5.77497 13.1081 4.33122 12.6748 2.99442 12.1873C2.4597 11.9706 1.92498 11.8081 1.39026 11.5914C0.962489 11.4289 0.695129 10.9956 0.695129 10.5081C0.695129 10.4539 0.695129 10.4539 0.695129 10.3998V10.2914C0.802073 9.74977 1.28332 9.37061 1.81804 9.37061C1.97846 9.37061 2.0854 9.37061 2.24582 9.42477C2.35276 9.47894 2.4597 9.47894 2.51318 9.53311C2.67359 9.69561 2.88748 9.74977 3.10137 9.80394C3.7965 10.0206 4.49164 10.2914 5.24025 10.5081C9.62495 11.8081 14.5978 12.5664 19.7846 12.6206C19.945 12.6206 20.1055 12.6206 20.3193 12.6206C20.8541 12.6206 21.3888 12.6206 21.9235 12.6206C26.0408 12.5123 29.9443 11.9706 33.5269 11.0498C34.3825 10.8331 35.238 10.5623 36.0936 10.2914L37.163 9.91227C37.2165 9.91227 37.2165 9.91227 37.27 9.91227C37.8047 9.80394 38.3394 10.0748 38.4998 10.5623C38.4998 10.6706 38.5533 10.8331 38.5533 10.9414Z" fill="white"/>
<path d="M20.2659 15.6541C19.4103 15.6541 18.6617 15.6541 17.9131 15.6C14.1701 15.4375 10.534 14.95 7.05829 14.0833C5.56108 13.7041 4.11734 13.2708 2.72707 12.7833C2.13887 12.5666 1.60415 12.35 1.12291 12.1875C0.481242 11.9166 0.0534668 11.3208 0.0534668 10.6166C0.0534668 10.5625 0.0534668 10.5083 0.0534668 10.4541V10.2916C0.213883 9.47913 0.909018 8.8833 1.7111 8.8833C1.92499 8.8833 2.13887 8.93747 2.29929 8.99163C2.40623 9.0458 2.45971 9.0458 2.56665 9.09997C2.78054 9.2083 2.99442 9.26247 3.20831 9.31663C3.95692 9.58747 4.65206 9.80413 5.29372 10.0208C9.78536 11.375 14.6513 12.0791 19.6777 12.1333C20.4263 12.1333 21.1214 12.1333 21.8166 12.1333C25.7735 12.025 29.6769 11.4833 33.313 10.5625C34.1686 10.3458 35.0241 10.1291 35.8797 9.8583L36.9491 9.47913C37.0026 9.47913 37.0561 9.47913 37.0561 9.42497H37.163C37.8581 9.26247 38.6068 9.64163 38.9276 10.3458L38.9811 10.4541V10.5083V10.5625C39.0345 10.725 39.0345 10.8875 39.0345 11.05V12.35L38.6602 12.5125C37.9116 12.7833 37.1095 13.0541 36.254 13.3791C35.3984 13.65 34.4894 13.9208 33.6339 14.1375C29.9443 15.0583 26.0408 15.6 22.0304 15.7625C21.5492 15.6541 20.961 15.6541 20.2659 15.6541ZM1.17638 10.5083C1.17638 10.5083 1.17638 10.5625 1.17638 10.5083C1.17638 10.7791 1.33679 10.9958 1.55068 11.1041C2.03193 11.3208 2.56665 11.4833 3.10137 11.7C4.49164 12.1875 5.88191 12.6208 7.32565 13C10.6944 13.8666 14.277 14.3541 17.9666 14.5166C18.7152 14.5708 19.4638 14.5708 20.2659 14.5708C20.9075 14.5708 21.5492 14.5708 22.0839 14.5166C25.9874 14.4083 29.8374 13.8666 33.42 12.9458C34.2755 12.7291 35.1311 12.4583 35.9866 12.1875C36.6818 11.9708 37.3769 11.7541 37.9651 11.4833V10.9416V10.8875L37.9116 10.8333V10.725C37.8047 10.5083 37.5908 10.4 37.3769 10.4541H37.27L36.2005 10.8333C35.345 11.1041 34.4359 11.375 33.5804 11.5916C29.8374 12.5666 25.9339 13.1083 21.87 13.2166C21.1749 13.2166 20.4263 13.2708 19.7312 13.2166C14.5978 13.1625 9.62495 12.4583 5.07983 11.1041C4.3847 10.8875 3.68956 10.6708 2.94095 10.4C2.67359 10.2916 2.45971 10.1833 2.29929 10.1291C2.19235 10.075 2.0854 10.075 1.97846 10.0208C1.92499 10.0208 1.87151 9.96663 1.76457 9.96663C1.49721 9.96663 1.22985 10.1833 1.17638 10.4541V10.5083Z" fill="white"/>
<path d="M49.3546 30.2791V13.9749C49.3546 13.3249 49.8894 12.8374 50.531 12.8374H58.3914C59.0331 12.8374 59.5678 13.3249 59.5678 13.9749C59.5678 14.6249 59.0331 15.1124 58.3914 15.1124H51.7609V21.1791H56.0386C56.6803 21.1791 57.215 21.7207 57.215 22.3707C57.215 23.0207 56.6803 23.5082 56.0386 23.5082H51.7609V30.2249C51.7609 30.8749 51.2262 31.3624 50.5845 31.3624C49.9428 31.4166 49.3546 30.9291 49.3546 30.2791Z" fill="white"/>
<path d="M50.531 31.9584C49.5685 31.9584 48.8199 31.2001 48.8199 30.2792V13.9751C48.8199 13.0542 49.5685 12.2959 50.531 12.2959H58.3914C59.3539 12.2959 60.1025 13.0542 60.1025 13.9751C60.1025 14.8959 59.3539 15.6542 58.3914 15.6542H52.2956V20.6376H56.0386C57.0011 20.6376 57.8032 21.4501 57.8032 22.3709C57.8032 23.2917 57.0011 24.0501 56.0386 24.0501H52.2956V30.2251C52.2956 31.2001 51.4935 31.9584 50.531 31.9584ZM50.531 13.3792C50.2102 13.3792 49.8894 13.6501 49.8894 13.9751V30.2792C49.8894 30.6042 50.1567 30.8751 50.531 30.8751C50.9053 30.8751 51.1727 30.6042 51.1727 30.2792V22.9667H55.9852C56.3595 22.9667 56.6268 22.6959 56.6268 22.3709C56.6268 22.0459 56.306 21.7209 55.9852 21.7209H51.1727V14.5709H58.3914C58.7122 14.5709 59.0331 14.3001 59.0331 13.9751C59.0331 13.6501 58.7657 13.3792 58.3914 13.3792H50.531Z" fill="white"/>
<path d="M60.5837 25.0787C60.5837 21.5578 63.4712 18.687 67.0538 18.687C70.6365 18.687 73.524 21.5578 73.524 25.0787C73.524 28.5995 70.583 31.4162 67.0538 31.4162C63.5247 31.4162 60.5837 28.5995 60.5837 25.0787ZM71.1177 25.0787C71.1177 22.8578 69.2462 21.0162 67.0004 21.0162C64.7546 21.0162 62.9365 22.8578 62.9365 25.0787C62.9365 27.2995 64.7546 29.1412 67.0004 29.1412C69.2997 29.1412 71.1177 27.2995 71.1177 25.0787Z" fill="white"/>
<path d="M67.0538 31.958C63.2039 31.958 60.049 28.8705 60.049 25.0246C60.049 21.1788 63.2039 18.0913 67.0538 18.0913C70.9038 18.0913 74.0587 21.233 74.0587 25.0246C74.0587 28.8705 70.9038 31.958 67.0538 31.958ZM67.0538 19.2288C63.792 19.2288 61.1719 21.8288 61.1719 25.0788C61.1719 28.2746 63.8455 30.8746 67.0538 30.8746C70.3156 30.8746 72.9892 28.2746 72.9892 25.0788C72.9892 21.8288 70.3156 19.2288 67.0538 19.2288ZM67.0538 29.683C64.4872 29.683 62.4553 27.6246 62.4553 25.0788C62.4553 22.533 64.5407 20.4746 67.0538 20.4746C69.6205 20.4746 71.7059 22.533 71.7059 25.0788C71.7059 27.6246 69.6205 29.683 67.0538 29.683ZM67.0538 21.558C65.1288 21.558 63.5247 23.1288 63.5247 25.0788C63.5247 27.0288 65.1288 28.5996 67.0538 28.5996C69.0323 28.5996 70.6365 27.0288 70.6365 25.0788C70.583 23.1288 68.9788 21.558 67.0538 21.558Z" fill="white"/>
<path d="M76.5719 25.0787C76.5719 21.5578 79.4594 18.687 83.042 18.687C86.6246 18.687 89.5121 21.5578 89.5121 25.0787C89.5121 28.5995 86.6246 31.4162 83.042 31.4162C79.5128 31.4162 76.5719 28.5995 76.5719 25.0787ZM87.1593 25.0787C87.1593 22.8578 85.2878 21.0162 83.042 21.0162C80.7962 21.0162 78.9781 22.8578 78.9781 25.0787C78.9781 27.2995 80.7962 29.1412 83.042 29.1412C85.2878 29.1412 87.1593 27.2995 87.1593 25.0787Z" fill="white"/>
<path d="M83.042 31.958C79.192 31.958 76.0371 28.8705 76.0371 25.0246C76.0371 21.1788 79.192 18.0913 83.042 18.0913C86.892 18.0913 90.0468 21.233 90.0468 25.0246C90.0468 28.8705 86.892 31.958 83.042 31.958ZM83.042 19.2288C79.7802 19.2288 77.1601 21.8288 77.1601 25.0788C77.1601 28.2746 79.8337 30.8746 83.042 30.8746C86.3038 30.8746 88.9774 28.2746 88.9774 25.0788C88.9774 21.8288 86.3038 19.2288 83.042 19.2288ZM83.042 29.683C80.4753 29.683 78.4434 27.6246 78.4434 25.0788C78.4434 22.533 80.5288 20.4746 83.042 20.4746C85.6086 20.4746 87.694 22.533 87.694 25.0788C87.694 27.6246 85.6086 29.683 83.042 29.683ZM83.042 21.558C81.117 21.558 79.5128 23.1288 79.5128 25.0788C79.5128 27.0288 81.117 28.5996 83.042 28.5996C85.0204 28.5996 86.6246 27.0288 86.6246 25.0788C86.6246 23.1288 85.0204 21.558 83.042 21.558Z" fill="white"/>
<path d="M92.6135 25.0791C92.6135 21.5582 95.501 18.6874 99.0836 18.6874C100.634 18.6874 102.078 19.2832 103.201 20.1499V13.9749C103.201 13.3249 103.736 12.8374 104.377 12.8374C105.019 12.8374 105.554 13.3249 105.554 13.9749V25.0791C105.554 28.5999 102.666 31.4166 99.0836 31.4166C95.501 31.4166 92.6135 28.5999 92.6135 25.0791ZM103.147 25.0791C103.147 22.8582 101.276 21.0166 99.0301 21.0166C96.7843 21.0166 94.9128 22.8582 94.9128 25.0791C94.9128 27.2999 96.7843 29.1416 99.0301 29.1416C101.329 29.1416 103.147 27.2999 103.147 25.0791Z" fill="white"/>
<path d="M99.0301 31.9584C95.1801 31.9584 92.0253 28.8709 92.0253 25.025C92.0253 21.1792 95.1801 18.0917 99.0301 18.0917C100.313 18.0917 101.49 18.4167 102.613 19.0667V13.9209C102.613 12.9459 103.361 12.2417 104.324 12.2417C105.286 12.2417 106.035 13 106.035 13.9209V25.025C106.035 28.8709 102.88 31.9584 99.0301 31.9584ZM99.0301 19.2292C95.7683 19.2292 93.1482 21.8292 93.1482 25.0792C93.1482 28.275 95.8218 30.875 99.0301 30.875C102.292 30.875 104.912 28.275 104.912 25.0792V13.975C104.912 13.65 104.645 13.3792 104.27 13.3792C103.896 13.3792 103.629 13.65 103.629 13.975V21.2875L102.773 20.5834C101.704 19.7167 100.42 19.2292 99.0301 19.2292ZM99.0301 29.6834C96.4634 29.6834 94.378 27.625 94.378 25.0792C94.378 22.5334 96.4634 20.475 99.0301 20.475C101.597 20.475 103.682 22.5334 103.682 25.0792C103.682 27.625 101.597 29.6834 99.0301 29.6834ZM99.0301 21.5584C97.0516 21.5584 95.4475 23.1292 95.4475 25.0792C95.4475 27.0292 97.0516 28.6 99.0301 28.6C101.009 28.6 102.613 27.0292 102.613 25.0792C102.613 23.1292 101.009 21.5584 99.0301 21.5584Z" fill="white"/>
<path d="M124.911 30.2787V23.7245C124.911 22.2078 123.681 20.962 122.13 20.962C120.579 20.962 119.349 22.1537 119.349 23.7245V30.2787C119.349 30.9287 118.815 31.4162 118.173 31.4162C117.531 31.4162 116.997 30.9287 116.997 30.2787V23.7245C116.997 22.2078 115.767 20.962 114.216 20.962C112.665 20.962 111.436 22.1537 111.436 23.7245V30.2787C111.436 30.9287 110.901 31.4162 110.259 31.4162C109.618 31.4162 109.083 30.9287 109.083 30.2787V19.8787C109.083 19.2287 109.618 18.687 110.259 18.687C110.794 18.687 111.222 19.0662 111.382 19.5537C112.184 19.0662 113.147 18.687 114.216 18.687C115.767 18.687 117.211 19.4453 118.173 20.5287C119.136 19.3912 120.526 18.687 122.13 18.687C124.964 18.687 127.263 20.962 127.263 23.7787V30.3328C127.263 30.9828 126.729 31.4703 126.087 31.4703C125.445 31.4162 124.911 30.9287 124.911 30.2787Z" fill="white"/>
<path d="M126.087 31.958C125.124 31.958 124.376 31.1997 124.376 30.2788V23.7247C124.376 22.4788 123.413 21.558 122.13 21.558C120.847 21.558 119.884 22.533 119.884 23.7247V30.2788C119.884 31.1997 119.082 31.958 118.12 31.958C117.157 31.958 116.408 31.1997 116.408 30.2788V23.7247C116.408 22.4788 115.446 21.558 114.163 21.558C112.879 21.558 111.917 22.533 111.917 23.7247V30.2788C111.917 31.2538 111.168 31.958 110.206 31.958C109.243 31.958 108.441 31.1997 108.441 30.2788V19.8788C108.441 18.958 109.243 18.1455 110.206 18.1455C110.74 18.1455 111.222 18.4163 111.543 18.7955C112.398 18.3622 113.254 18.1455 114.163 18.1455C115.606 18.1455 117.05 18.7413 118.12 19.7705C119.189 18.7413 120.633 18.1455 122.077 18.1455C125.178 18.1455 127.745 20.6913 127.745 23.7788V30.333C127.798 31.2538 127.049 31.958 126.087 31.958ZM122.13 20.4747C123.948 20.4747 125.445 21.9372 125.445 23.7788V30.333C125.445 30.658 125.713 30.9288 126.087 30.9288C126.461 30.9288 126.729 30.658 126.729 30.333V23.7247C126.729 21.233 124.697 19.1747 122.183 19.1747C120.847 19.1747 119.51 19.7705 118.601 20.8538L118.173 21.3413L117.745 20.8538C116.89 19.8247 115.553 19.1747 114.216 19.1747C113.361 19.1747 112.452 19.4455 111.649 19.933L111.061 20.3122L110.847 19.608C110.794 19.3372 110.527 19.1747 110.259 19.1747C109.885 19.1747 109.618 19.4455 109.618 19.8247V30.2247C109.618 30.5497 109.938 30.8205 110.259 30.8205C110.634 30.8205 110.901 30.5497 110.901 30.2247V23.7247C110.901 21.883 112.398 20.4205 114.216 20.4205C116.034 20.4205 117.531 21.883 117.531 23.7247V30.2788C117.531 30.6038 117.799 30.8747 118.173 30.8747C118.547 30.8747 118.815 30.6038 118.815 30.2788V23.7247C118.815 21.9372 120.312 20.4747 122.13 20.4747Z" fill="white"/>
<path d="M130.525 25.0787C130.525 21.5578 133.413 18.687 136.995 18.687C140.578 18.687 143.465 21.5578 143.465 25.0787C143.465 28.5995 140.524 31.4162 136.942 31.4162C133.413 31.4162 130.525 28.5995 130.525 25.0787ZM141.059 25.0787C141.059 22.8578 139.188 21.0162 136.942 21.0162C134.696 21.0162 132.878 22.8578 132.878 25.0787C132.878 27.2995 134.696 29.1412 136.942 29.1412C139.188 29.1412 141.059 27.2995 141.059 25.0787Z" fill="white"/>
<path d="M136.942 31.958C133.092 31.958 129.937 28.8705 129.937 25.0246C129.937 21.1788 133.092 18.0913 136.942 18.0913C140.792 18.0913 143.947 21.233 143.947 25.0246C144 28.8705 140.845 31.958 136.942 31.958ZM136.942 19.2288C133.68 19.2288 131.06 21.8288 131.06 25.0788C131.06 28.2746 133.733 30.8746 136.942 30.8746C140.204 30.8746 142.877 28.2746 142.877 25.0788C142.877 21.8288 140.257 19.2288 136.942 19.2288ZM136.942 29.683C134.375 29.683 132.343 27.6246 132.343 25.0788C132.343 22.533 134.429 20.4746 136.942 20.4746C139.508 20.4746 141.594 22.533 141.594 25.0788C141.594 27.6246 139.508 29.683 136.942 29.683ZM136.942 21.558C135.017 21.558 133.413 23.1288 133.413 25.0788C133.413 27.0288 135.017 28.5996 136.942 28.5996C138.92 28.5996 140.524 27.0288 140.524 25.0788C140.524 23.1288 138.92 21.558 136.942 21.558Z" fill="white"/>
</svg>
