<svg width="335" height="331" viewBox="0 0 335 331" fill="none" xmlns="http://www.w3.org/2000/svg">
<g opacity="0.05">
<path d="M185.327 130.119L183.039 118.627C181.209 111.732 180.751 103.458 180.751 94.2644C180.751 88.7483 181.209 82.7726 181.667 75.4178C183.039 63.4663 188.531 53.3535 198.14 45.9988C221.02 29.4505 256.255 34.9666 266.78 37.265C287.83 41.8617 302.93 56.5712 307.506 77.7162C309.337 85.9903 309.794 94.724 308.422 103.458L307.049 112.651L297.897 114.95C265.865 123.224 231.545 127.82 196.767 128.74L185.327 130.119ZM240.239 63.0066C229.257 63.0066 220.105 65.305 214.614 68.9824C211.411 71.2807 209.58 74.0388 209.58 78.1758C209.123 84.6112 208.665 89.6676 208.665 94.2644C208.665 96.5627 208.665 98.4014 208.665 100.24C233.833 98.8611 258.086 95.1837 281.423 90.1273C281.423 87.829 280.966 85.5306 280.508 83.6919C278.22 73.1194 271.814 66.684 261.289 64.3857C253.967 63.926 247.103 63.0066 240.239 63.0066Z" fill="#FBB03B"/>
<path d="M149.635 131.957L143.228 131.498C110.739 130.119 80.995 123.224 48.5055 115.409L47.1327 114.949L37.9807 110.812L36.1503 109.433C28.3711 102.079 22.8799 92.8852 21.0495 82.3127C17.8463 65.7645 22.4223 48.7566 33.8623 36.8051L52.6239 16.5795C71.843 -4.56538 104.333 -5.48473 124.924 13.8215L159.244 45.9986C174.345 60.2484 179.836 82.7724 172.057 102.538C169.769 108.514 166.108 114.03 161.99 119.087L149.635 131.957ZM56.7422 88.7481C85.1134 95.6432 111.197 101.619 138.195 103.458L141.856 99.7803C143.686 97.4819 145.516 95.1835 146.432 92.4255C150.092 83.6917 147.347 73.1193 140.483 66.6838L106.163 34.5068C96.5534 25.773 81.9102 26.2327 72.7582 35.8858L53.9967 56.1114C48.9631 61.6274 46.6751 69.4419 48.0479 77.2563C48.9631 81.3934 50.7935 85.0707 53.5391 88.2885L56.7422 88.7481Z" fill="#F7931E"/>
<path d="M329.929 100.7C329.929 96.5632 329.471 92.8858 329.471 89.2085C329.014 84.6117 324.438 81.8537 320.319 83.2327C318.947 83.6924 317.574 84.1521 316.201 84.6117C312.083 85.9907 309.337 90.1278 309.337 94.7245C309.337 97.4826 309.795 100.241 309.795 102.999C309.795 104.378 309.795 105.757 309.795 107.595C307.507 184.361 244.816 245.957 167.481 245.957C88.7744 245.957 25.1681 182.062 25.1681 103.458V102.999C25.1681 96.1035 25.6257 89.6681 26.5409 82.773C23.7953 81.8537 21.0497 80.9343 18.3041 79.5553C12.3554 77.257 6.40658 81.394 5.49138 87.3698C5.03378 90.1278 5.03378 92.4262 5.03378 95.1842C5.03378 97.4826 5.03378 100.241 5.03378 102.539C5.03378 192.635 77.792 265.723 167.481 265.723C257.171 265.723 329.929 192.635 329.929 102.539C329.929 102.539 329.929 101.62 329.929 100.7Z" fill="white"/>
<path d="M167.024 271.698C75.0462 271.698 0 196.312 0 103.458C0 100.7 0 97.942 0 95.6437C0 92.8856 0.457599 90.5873 0.457599 87.8292C0.915198 83.2325 3.20319 79.5551 6.86398 77.2568C10.5248 74.9584 15.1008 74.4987 19.2191 75.8777C21.9647 76.7971 24.7103 77.7164 27.4559 79.0955L31.1167 80.4745L30.6591 84.1518C29.7439 90.5873 29.2863 97.0227 29.2863 103.458C29.2863 179.764 91.0622 241.82 167.024 241.82C242.07 241.82 302.473 182.981 304.761 108.055C304.761 106.676 304.761 105.297 304.761 103.918C304.761 101.16 304.761 98.4017 304.303 95.6437C303.846 88.7486 307.964 82.7728 314.37 80.9341C315.743 80.4745 317.116 80.0148 318.489 79.5551C321.692 78.1761 325.353 78.6358 328.556 80.9341C331.302 82.7728 333.59 85.9905 333.59 89.6679C334.047 93.805 334.047 97.4824 334.047 101.619C334.047 102.539 334.047 103.458 334.047 104.377C334.505 196.312 259.459 271.698 167.024 271.698ZM14.6432 84.6115C13.728 84.6115 12.8128 85.0712 12.3552 85.5309C10.9824 86.4502 10.5248 87.8292 10.0672 89.2082C10.0672 91.5066 9.60957 94.2646 9.60957 96.563C9.60957 98.8614 9.60957 101.16 9.60957 103.918C9.15198 191.256 80.0798 262.045 167.024 262.045C253.967 262.045 324.895 190.796 324.895 103.458C324.895 102.539 324.895 101.619 324.895 100.7C324.895 97.0227 324.438 93.3453 324.438 89.2082C324.438 88.2889 323.98 87.8292 323.522 87.8292C323.065 87.8292 322.607 87.3696 321.692 87.8292C320.319 88.2889 318.946 88.7486 317.574 89.2082C315.286 90.1276 313.913 92.426 313.913 94.7243C313.913 97.4824 314.37 100.7 314.37 103.458C314.37 104.837 314.37 106.676 314.37 108.055C311.625 188.497 247.103 251.013 167.024 251.013C86.0286 251.013 20.1343 184.82 20.1343 103.918C20.1343 97.942 20.5919 92.426 21.0495 86.4502C19.2191 85.9905 17.8464 85.0712 16.016 84.6115C16.016 84.6115 15.1008 84.6115 14.6432 84.6115Z" fill="white"/>
<path d="M249.392 302.956C205.462 331.915 148.262 331.915 104.79 302.956C98.3841 298.819 96.5537 291.005 100.215 286.408C100.215 285.948 100.672 285.948 100.672 285.489C104.333 280.892 111.654 280.892 116.688 284.569C153.296 308.932 200.886 308.932 237.037 284.569C242.528 280.892 249.392 281.352 253.052 285.489C253.052 285.948 253.51 285.948 253.51 286.408C257.628 290.545 255.798 298.359 249.392 302.956Z" fill="white"/>
<path d="M177.091 330.996C150.55 330.996 124.467 323.181 101.13 308.012C96.096 304.794 92.8928 299.738 91.9776 294.222C91.52 289.625 92.4352 285.488 95.1808 282.271L95.6384 281.351C101.13 274.916 111.654 273.537 119.891 279.053C154.211 302.036 199.056 302.036 233.376 279.053C241.612 273.537 252.137 274.456 257.628 281.351L258.544 282.271C261.289 285.488 262.204 289.625 261.747 293.762C260.832 299.278 257.628 304.335 252.595 307.553C229.715 323.181 203.174 330.996 177.091 330.996ZM108.909 288.246C107.536 288.246 106.163 288.706 105.248 289.625L104.79 290.085C104.333 291.004 104.333 291.924 104.333 292.383C104.333 293.762 105.706 296.061 107.994 297.899C150.093 325.939 204.089 325.939 245.731 297.899C248.019 296.061 249.392 294.222 249.392 292.383C249.392 291.924 249.392 291.004 248.934 290.545V289.625C247.104 287.787 243.9 287.787 240.697 289.625C202.259 315.367 151.923 315.367 113.485 289.625C112.112 288.706 110.282 288.246 108.909 288.246Z" fill="white"/>
<path d="M329.929 92.8857V100.7C323.522 103.458 316.658 105.757 309.794 107.595C302.473 109.894 295.151 112.192 287.372 114.031C256.713 121.845 223.766 126.442 189.446 127.361C184.412 127.361 178.921 127.821 173.888 127.821C167.024 127.821 160.617 127.821 154.211 127.361C121.721 125.982 91.0622 121.385 62.2335 114.49C49.4207 111.273 37.0656 107.595 25.6256 103.458C21.0496 101.619 16.4736 100.24 11.8976 98.4018C8.23685 97.0227 5.94885 93.3454 5.94885 89.2083C5.94885 88.7486 5.94885 88.7486 5.94885 88.289V87.3696C6.86405 82.7729 10.9824 79.5552 15.5584 79.5552C16.9312 79.5552 17.8464 79.5552 19.2192 80.0149C20.1344 80.4745 21.0496 80.4745 21.5072 80.9342C22.88 82.3132 24.7104 82.7729 26.5408 83.2326C32.4896 85.0713 38.4384 87.3696 44.8447 89.2083C82.3679 100.24 124.925 106.676 169.312 107.136C170.684 107.136 172.057 107.136 173.888 107.136C178.464 107.136 183.04 107.136 187.616 107.136C222.851 106.216 256.255 101.619 286.915 93.805C294.236 91.9663 301.558 89.668 308.879 87.3696L318.031 84.1519C318.489 84.1519 318.489 84.1519 318.946 84.1519C323.522 83.2326 328.098 85.5309 329.471 89.668C329.471 90.5873 329.929 91.9663 329.929 92.8857Z" fill="white"/>
<path d="M173.43 132.877C166.109 132.877 159.702 132.877 153.296 132.417C121.264 131.038 90.1471 126.901 60.4032 119.547C47.5904 116.329 35.2352 112.651 23.3377 108.514C18.3041 106.676 13.7281 104.837 9.60971 103.458C4.11852 101.16 0.457733 96.1032 0.457733 90.1275C0.457733 89.6678 0.457733 89.2081 0.457733 88.7485V87.3695C1.83053 80.4744 7.77931 75.418 14.6433 75.418C16.4737 75.418 18.3041 75.8776 19.6769 76.3373C20.5921 76.797 21.0497 76.797 21.9649 77.2567C23.7953 78.176 25.6257 78.6357 27.4561 79.0954C33.8624 81.3937 39.8112 83.2324 45.3024 85.0711C83.7407 96.5629 125.382 102.539 168.396 102.998C174.803 102.998 180.752 102.998 186.7 102.998C220.563 102.079 253.967 97.4822 285.084 89.6678C292.406 87.8291 299.727 85.9904 307.049 83.6921L316.201 80.4744C316.659 80.4744 317.116 80.4744 317.116 80.0147H318.031C323.98 78.6357 330.387 81.8534 333.132 87.8291L333.59 88.7485V89.2081V89.6678C334.047 91.0468 334.047 92.4258 334.047 93.8049V104.837L330.844 106.216C324.438 108.514 317.574 110.813 310.252 113.571C302.931 115.869 295.151 118.168 287.83 120.006C256.255 127.821 222.851 132.417 188.531 133.796C184.412 132.877 179.379 132.877 173.43 132.877ZM10.0673 89.2081C10.0673 89.2081 10.0673 89.6678 10.0673 89.2081C10.0673 91.5065 11.4401 93.3452 13.2705 94.2645C17.3889 96.1032 21.9649 97.4823 26.5409 99.3209C38.4384 103.458 50.336 107.135 62.6912 110.353C91.5199 117.708 122.179 121.845 153.753 123.224C160.16 123.684 166.566 123.684 173.43 123.684C178.921 123.684 184.412 123.684 188.988 123.224C222.393 122.305 255.34 117.708 285.999 109.893C293.321 108.055 300.643 105.756 307.964 103.458C313.913 101.619 319.862 99.7806 324.895 97.4823V92.8855V92.4259L324.438 91.9662V91.0468C323.523 89.2081 321.692 88.2888 319.862 88.7485H318.947L309.795 91.9662C302.473 94.2645 294.694 96.5629 287.372 98.4016C255.34 106.676 221.936 111.272 187.158 112.192C181.209 112.192 174.803 112.651 168.854 112.192C124.925 111.732 82.3679 105.756 43.472 94.2645C37.5232 92.4259 31.5745 90.5872 25.1681 88.2888C22.8801 87.3695 21.0497 86.4501 19.6769 85.9904C18.7617 85.5308 17.8465 85.5308 16.9313 85.0711C16.4737 85.0711 16.0161 84.6114 15.1009 84.6114C12.8129 84.6114 10.5249 86.4501 10.0673 88.7485V89.2081Z" fill="white"/>
</g>
</svg>
